FFmpeg version SVN-r25716, Copyright (c) 2000-2010 the FFmpeg developers  built on Nov 10 2010 12:23:18 with gcc 4.1.2 20080704 (Red Hat 4.1.2-48)  configuration: --enable-libmp3lame --enable-shared --disable-mmx --arch=x86_64  libavutil     50.33. 0 / 50.33. 0  libavcore      0.12. 1 /  0.12. 1  libavcodec    52.94. 4 / 52.94. 4  libavformat   52.84. 0 / 52.84. 0  libavdevice   52. 2. 2 / 52. 2. 2  libavfilter    1.59. 0 /  1.59. 0  libswscale     0.12. 0 /  0.12. 0Seems stream 0 codec frame rate differs from container frame rate: 1800.00 (1800/1) -> 10.00 (10/1)Input #0, mov,mp4,m4a,3gp,3g2,mj2, from '/RAID10/data/converted_video_files/40377.mov':  Duration: 00:00:09.30, start: 0.000000, bitrate: 61266 kb/s    Stream #0.0(eng): Video: qtrle, rgb24, 650x515, 61264 kb/s, 10 fps, 10 tbr, 1800 tbn, 1800 tbc[buffer @ 0x1c6758c0] w:650 h:515 pixfmt:rgb24[ffsink @ 0x1c675b30] auto-inserting filter 'auto-inserted scaler 0' between the filter 'src' and the filter 'out'[scale @ 0x1c675e50] w:650 h:515 fmt:rgb24 -> w:650 h:515 fmt:yuv420p flags:0x4Output #0, flv, to '/RAID10/data/converted_video_files/40377.flv':  Metadata:    encoder         : Lavf52.84.0    Stream #0.0(eng): Video: flv, yuv420p, 650x515, q=2-31, 600 kb/s, 1k tbn, 24 tbcStream mapping:  Stream #0.0 -> #0.0Press [q] to stop encodingframe=   10 fps=  0 q=17.5 size=     359kB time=0.96 bitrate=3063.6kbits/s    frame=   27 fps= 23 q=31.0 size=     436kB time=2.62 bitrate=1359.4kbits/s    frame=   41 fps= 24 q=31.0 size=     482kB time=4.04 bitrate= 976.7kbits/s    frame=   53 fps= 24 q=31.0 size=     531kB time=5.25 bitrate= 828.7kbits/s    frame=   65 fps= 24 q=31.0 size=     575kB time=6.46 bitrate= 729.5kbits/s    frame=   81 fps= 25 q=25.9 size=     637kB time=8.04 bitrate= 648.4kbits/s    frame=   93 fps= 25 q=22.1 Lsize=     692kB time=9.25 bitrate= 613.3kbits/s    video:691kB audio:0kB global headers:0kB muxing overhead 0.240035%